0
SECTION
2
HEADER
9
$INSUNITS
70
4
9
$ACADVER
1
AC1014
9
$HANDSEED
5
FFFF
0
ENDSEC
0
SECTION
2
TABLES
0
TABLE
2
VPORT
5
8
100
AcDbSymbolTable
0
ENDTAB
0
TABLE
2
LTYPE
5
5
100
AcDbSymbolTable
0
LTYPE
5
14
100
AcDbSymbolTableRecord
100
AcDbLinetypeTableRecord
2
BYBLOCK
70
0
0
LTYPE
5
15
100
AcDbSymbolTableRecord
100
AcDbLinetypeTableRecord
2
BYLAYER
70
0
0
ENDTAB
0
TABLE
2
LAYER
5
2
100
AcDbSymbolTable
70
2
0
LAYER
5
50
100
AcDbSymbolTableRecord
100
AcDbLayerTableRecord
2
0
70
0
6
CONTINUOUS
0
ENDTAB
0
TABLE
2
STYLE
5
3
100
AcDbSymbolTable
70
1
0
STYLE
5
11
100
AcDbSymbolTableRecord
100
AcDbTextStyleTableRecord
2
STANDARD
70
0
0
ENDTAB
0
TABLE
2
VIEW
5
6
100
AcDbSymbolTable
70
0
0
ENDTAB
0
TABLE
2
UCS
5
7
100
AcDbSymbolTable
70
0
0
ENDTAB
0
TABLE
2
APPID
5
9
100
AcDbSymbolTable
70
2
0
APPID
5
12
100
AcDbSymbolTableRecord
100
AcDbRegAppTableRecord
2
ACAD
70
0
0
ENDTAB
0
TABLE
2
DIMSTYLE
5
A
100
AcDbSymbolTable
70
1
0
ENDTAB
0
TABLE
2
BLOCK_RECORD
5
1
100
AcDbSymbolTable
70
1
0
BLOCK_RECORD
5
1F
100
AcDbSymbolTableRecord
100
AcDbBlockTableRecord
2
*MODEL_SPACE
0
BLOCK_RECORD
5
1B
100
AcDbSymbolTableRecord
100
AcDbBlockTableRecord
2
*PAPER_SPACE
0
ENDTAB
0
ENDSEC
0
SECTION
2
BLOCKS
0
BLOCK
5
20
100
AcDbEntity
100
AcDbBlockBegin
2
*MODEL_SPACE
0
ENDBLK
5
21
100
AcDbEntity
100
AcDbBlockEnd
0
BLOCK
5
1C
100
AcDbEntity
100
AcDbBlockBegin
2
*PAPER_SPACE
0
ENDBLK
5
1D
100
AcDbEntity
100
AcDbBlockEnd
0
ENDSEC
0
SECTION
2
ENTITIES
0
LWPOLYLINE
5
100
100
AcDbEntity
8
0
100
AcDbPolyline
90
34
70
1
43
0.0
10
-38.092475823086829
20
-5.4609529623315716
42
0.30960093391363269
10
-37.453932869459521
20
-6.3933417243978639
42
-0.28168602359703909
10
-32.949935847105991
20
-12.295691980994176
42
0.3844491323887031
10
-32.066830348412523
20
-13.092475823079447
10
-10.750000000000819
20
-13.092475823084612
42
0.41421356237309537
10
-8.7500000000003357
20
-11.092475823085103
42
-0.4142135601908718
10
-6.7499999999998934
20
-9.0924758379866972
10
6.7500000000001092
20
-9.0924758379896851
42
-0.41421356237310075
10
8.749999999999666
20
-11.092475837990168
42
0.4142135601909207
10
10.749999999999185
20
-13.092475823089824
10
32.857441581530537
20
-13.092475823095185
42
0.3844491323887107
10
33.740547080224388
20
-12.295691981010348
42
-0.28168602359714057
10
38.244544102583269
20
-6.3933417244152588
42
0.30960093391386895
10
38.883087056211394
20
-5.4609529623486459
10
38.883087056211387
20
6.2515641954550887
42
0.30960093391363697
10
38.244544102584079
20
7.1839529575213863
42
-0.28168602359703943
10
33.740547080230542
20
13.086303214117688
42
0.38444913238870665
10
32.857441581537074
20
13.883087056202964
10
25.750000000001286
20
13.883087056204683
42
0.4142135601894571
10
23.750000000000799
20
11.88308707111598
42
-0.41421356237290285
10
21.750000000001609
20
9.8830870711164813
10
8.250000000001636
20
9.8830870711110048
42
-0.30561468458175445
10
6.3959503782243177
20
11.133087071117412
42
0.30561468458170582
10
4.5419007564473617
20
12.383087071123814
10
-4.5419007564484284
20
12.383087071121778
42
0.30561468458143143
10
-6.3959503782240734
20
11.133087071116394
42
-0.30561468458160451
10
-8.2500000000009805
20
9.8830870711110048
10
-21.750000000000938
20
9.883087071116476
42
-0.41421356237290285
10
-23.750000000000135
20
11.883087071115979
42
0.41421356019114408
10
-25.749999999999652
20
13.883087056217162
10
-32.066830348405972
20
13.883087056218697
42
0.38444913238871264
10
-32.949935847099837
20
13.086303214133864
42
-0.28168602359714129
10
-37.453932869458725
20
7.1839529575387653
42
0.30960093391386784
10
-38.092475823086836
20
6.2515641954721524
0
CIRCLE
5
101
100
AcDbEntity
8
0
100
AcDbCircle
10
-28.204517963143587
20
11.795436244285185
30
0
40
1.8999999999999995
210
-2.4261045266791923e-62
220
-1.2325951644078309e-32
230
1
0
CIRCLE
5
102
100
AcDbEntity
8
0
100
AcDbCircle
10
28.995482036856117
20
-11.004563755714756
30
0
40
1.8999999999999995
210
-2.4261045266791923e-62
220
-1.2325951644078309e-32
230
1
0
ENDSEC
0
SECTION
2
OBJECTS
0
DICTIONARY
5
C
100
AcDbDictionary
3
ACAD_GROUP
350
D
3
ACAD_MLINESTYLE
350
17
0
DICTIONARY
5
D
100
AcDbDictionary
0
DICTIONARY
5
1A
330
C
100
AcDbDictionary
0
DICTIONARY
5
17
100
AcDbDictionary
0
ENDSEC
0
EOF
